<?xml version="1.0" standalone="no"?>
<!DOCTYPE svg PUBLIC "-//W3C//DTD SVG 20010904//EN"
 "http://www.w3.org/TR/2001/REC-SVG-20010904/DTD/svg10.dtd">
<svg version="1.0" xmlns="http://www.w3.org/2000/svg"
 width="512.000000pt" height="512.000000pt" viewBox="0 0 512.000000 512.000000"
 preserveAspectRatio="xMidYMid meet">

<g transform="translate(0.000000,512.000000) scale(0.100000,-0.100000)"
fill="#000000" stroke="none">
<path d="M2360 5113 c-232 -17 -516 -84 -743 -174 -328 -131 -601 -312 -863
-573 -220 -221 -363 -420 -495 -689 -348 -712 -345 -1539 7 -2246 133 -268
270 -458 489 -677 207 -207 413 -358 661 -482 719 -360 1558 -362 2273 -6 80
40 180 94 221 120 321 204 619 502 824 824 63 98 185 349 231 475 48 128 108
366 131 520 26 169 26 541 0 710 -23 153 -83 392 -130 520 -46 124 -168 375
-232 475 -158 248 -414 528 -634 692 -462 344 -1003 523 -1560 516 -74 -1
-155 -3 -180 -5z m408 -574 c781 -85 1439 -616 1682 -1358 310 -946 -120
-1965 -1015 -2407 -763 -376 -1676 -224 -2280 381 -377 377 -585 876 -585
1405 0 768 447 1472 1145 1801 323 152 702 217 1053 178z"/>
<path d="M1542 3548 c-38 -116 -62 -272 -64 -415 l-2 -108 -44 -60 c-59 -80
-97 -157 -124 -252 -19 -66 -23 -102 -23 -233 0 -219 33 -377 112 -534 113
-227 344 -389 630 -441 116 -22 475 -33 755 -24 379 12 537 58 736 213 158
124 259 310 303 556 21 113 18 369 -5 450 -25 90 -75 194 -128 265 l-45 60 -1
100 c-3 159 -28 316 -73 454 l-21 63 -41 -6 c-113 -18 -312 -105 -488 -212
l-108 -66 -73 13 c-97 18 -458 18 -555 0 l-73 -13 -97 62 c-181 114 -387 204
-494 217 l-47 6 -30 -95z m1008 -962 c102 0 289 3 415 5 l230 4 58 -27 c117
-55 210 -175 238 -306 15 -75 6 -219 -20 -302 -27 -85 -83 -165 -149 -211
-142 -100 -505 -160 -867 -144 -630 27 -837 173 -823 579 3 99 7 118 35 177
56 119 136 187 263 222 57 15 88 16 250 10 102 -4 268 -7 370 -7z"/>
<path d="M2053 2366 c-39 -18 -89 -85 -104 -140 -16 -58 -7 -183 15 -229 56
-114 168 -148 250 -76 55 48 80 111 80 204 1 99 -19 157 -73 209 -33 32 -48
39 -88 43 -28 2 -61 -3 -80 -11z"/>
<path d="M2935 2361 c-47 -28 -83 -76 -100 -133 -61 -206 86 -411 234 -327 72
40 111 120 111 229 0 146 -74 250 -177 250 -21 0 -52 -8 -68 -19z"/>
</g>
</svg>
